<svg width="24" height="25" viewBox="0 0 24 25" fill="none" xmlns="http://www.w3.org/2000/svg">
<g clip-path="url(#clip0_23_620)">
<path d="M3 3.75537H21C21.2652 3.75537 21.5196 3.86073 21.7071 4.04826C21.8946 4.2358 22 4.49015 22 4.75537V20.7554C22 21.0206 21.8946 21.2749 21.7071 21.4625C21.5196 21.65 21.2652 21.7554 21 21.7554H3C2.73478 21.7554 2.48043 21.65 2.29289 21.4625C2.10536 21.2749 2 21.0206 2 20.7554V4.75537C2 4.49015 2.10536 4.2358 2.29289 4.04826C2.48043 3.86073 2.73478 3.75537 3 3.75537ZM12.06 12.4384L5.648 6.99337L4.353 8.51737L12.073 15.0724L19.654 8.51237L18.346 6.99937L12.061 12.4384H12.06Z" fill="#FFA3A3"/>
</g>
<defs>
<clipPath id="clip0_23_620">
<rect width="24" height="24" fill="white" transform="translate(0 0.755371)"/>
</clipPath>
</defs>
</svg>
