<svg width="24" height="25" viewBox="0 0 24 25" fill="none" xmlns="http://www.w3.org/2000/svg">
<g clip-path="url(#clip0_23_617)">
<path d="M21 17.1754V20.7114C21.0001 20.9645 20.9042 21.2083 20.7316 21.3936C20.559 21.5788 20.3226 21.6916 20.07 21.7094C19.633 21.7394 19.276 21.7554 19 21.7554C10.163 21.7554 3 14.5924 3 5.75537C3 5.47937 3.015 5.12237 3.046 4.68537C3.06372 4.43282 3.17658 4.19638 3.3618 4.02378C3.54703 3.85118 3.79082 3.75526 4.044 3.75537H7.58C7.70404 3.75525 7.8237 3.80123 7.91573 3.88439C8.00776 3.96755 8.0656 4.08195 8.078 4.20537C8.101 4.43537 8.122 4.61837 8.142 4.75737C8.34073 6.14429 8.748 7.4932 9.35 8.75837C9.445 8.95837 9.383 9.19737 9.203 9.32537L7.045 10.8674C8.36445 13.9418 10.8145 16.3919 13.889 17.7114L15.429 15.5574C15.4919 15.4694 15.5838 15.4063 15.6885 15.379C15.7932 15.3518 15.9042 15.3622 16.002 15.4084C17.267 16.0092 18.6156 16.4155 20.002 16.6134C20.141 16.6334 20.324 16.6554 20.552 16.6774C20.6752 16.69 20.7894 16.7479 20.8724 16.84C20.9553 16.932 21.0012 17.0515 21.001 17.1754H21Z" fill="#FFA3A3"/>
</g>
<defs>
<clipPath id="clip0_23_617">
<rect width="24" height="24" fill="white" transform="translate(0 0.755371)"/>
</clipPath>
</defs>
</svg>
