<svg width="24" height="25" viewBox="0 0 24 25" fill="none" xmlns="http://www.w3.org/2000/svg">
<g clip-path="url(#clip0_23_623)">
<path d="M18.364 18.1193L12 24.4833L5.636 18.1193C4.37734 16.8606 3.52019 15.257 3.17293 13.5111C2.82567 11.7653 3.00391 9.95572 3.6851 8.31119C4.36629 6.66667 5.51984 5.26106 6.99988 4.27214C8.47992 3.28321 10.22 2.75537 12 2.75537C13.78 2.75537 15.5201 3.28321 17.0001 4.27214C18.4802 5.26106 19.6337 6.66667 20.3149 8.31119C20.9961 9.95572 21.1743 11.7653 20.8271 13.5111C20.4798 15.257 19.6227 16.8606 18.364 18.1193ZM12 13.7553C12.5304 13.7553 13.0391 13.5446 13.4142 13.1695C13.7893 12.7944 14 12.2857 14 11.7553C14 11.2249 13.7893 10.7162 13.4142 10.3411C13.0391 9.96601 12.5304 9.75529 12 9.75529C11.4696 9.75529 10.9609 9.96601 10.5858 10.3411C10.2107 10.7162 10 11.2249 10 11.7553C10 12.2857 10.2107 12.7944 10.5858 13.1695C10.9609 13.5446 11.4696 13.7553 12 13.7553Z" fill="#FFA3A3"/>
</g>
<defs>
<clipPath id="clip0_23_623">
<rect width="24" height="24" fill="white" transform="translate(0 0.755371)"/>
</clipPath>
</defs>
</svg>
