<svg width="40" height="28" viewBox="0 0 40 28" fill="none" xmlns="http://www.w3.org/2000/svg">
<path d="M36.4844 0.526794H3.51562C1.57711 0.526794 0 2.1039 0 4.04242V23.9575C0 25.896 1.57711 27.4731 3.51562 27.4731H36.4844C38.4229 27.4731 40 25.896 40 23.9575V4.04242C40 2.1039 38.4229 0.526794 36.4844 0.526794ZM13.4672 22.9462C8.53422 22.9462 4.52094 18.933 4.52094 14C4.52094 9.06703 8.53422 5.05375 13.4672 5.05375C18.4002 5.05375 22.4134 9.06703 22.4134 14C22.4134 18.933 18.4002 22.9462 13.4672 22.9462ZM26.9423 10.6665V20.6208C26.9423 21.268 26.4176 21.7927 25.7704 21.7927C25.1232 21.7927 24.5985 21.268 24.5985 20.6208V10.6665C24.1775 10.4887 23.882 10.0721 23.882 9.5864C23.882 9.1007 24.1775 8.68406 24.5985 8.50633V7.63812C24.5985 6.99094 25.1232 6.46625 25.7704 6.46625C26.4176 6.46625 26.9423 6.99094 26.9423 7.63812V8.50633C27.3634 8.68406 27.6589 9.1007 27.6589 9.5864C27.6589 10.0721 27.3634 10.4887 26.9423 10.6665ZM31.197 19.1813V20.6207C31.197 21.2679 30.6723 21.7926 30.0252 21.7926C29.378 21.7926 28.8533 21.2679 28.8533 20.6207V19.1813C28.4323 19.0037 28.1366 18.587 28.1366 18.1012C28.1366 17.6155 28.4322 17.1988 28.8533 17.0212V7.63812C28.8533 6.99094 29.378 6.46625 30.0252 6.46625C30.6723 6.46625 31.197 6.99094 31.197 7.63812V17.0212C31.6181 17.199 31.9137 17.6156 31.9137 18.1013C31.9137 18.587 31.6181 19.0037 31.197 19.1813ZM35.4518 10.6665V20.6208C35.4518 21.268 34.9271 21.7927 34.2799 21.7927C33.6327 21.7927 33.108 21.268 33.108 20.6208V10.6665C32.687 10.4888 32.3914 10.0721 32.3914 9.5864C32.3914 9.1007 32.687 8.68398 33.108 8.50633V7.63812C33.108 6.99094 33.6327 6.46625 34.2799 6.46625C34.9271 6.46625 35.4518 6.99094 35.4518 7.63812V8.50633C35.8729 8.68406 36.1684 9.1007 36.1684 9.5864C36.1684 10.0721 35.8729 10.4887 35.4518 10.6665Z" fill="#84C4FF"/>
</svg>
